<svg width="512" height="512" viewBox="0 0 512 512" fill="none" xmlns="http://www.w3.org/2000/svg">
<g clip-path="url(#clip0_2_31)">
<path d="M257.967 0H254.033C113.734 0 0 114.615 0 256C0 397.385 113.734 512 254.033 512H257.967C398.266 512 512 397.385 512 256C512 114.615 398.266 0 257.967 0Z" fill="#0061AE"/>
<path fill-rule="evenodd" clip-rule="evenodd" d="M238.53 210.813V134.663H332.77C372.45 134.663 404.66 124.203 407.34 85.3625C366.03 98.9925 359.07 85.3625 282.35 85.3625C186.34 85.3625 160.67 111.863 160.67 144.313V213.603C119.55 238.323 77.46 278.993 46 342.643C96.5 248.433 176.47 221.943 238.52 210.813H238.53Z" fill="white"/>
<path fill-rule="evenodd" clip-rule="evenodd" d="M238.53 281.753C241.32 281.603 244.06 281.433 246.89 281.293C329.73 277.333 369.93 216.823 373.03 188.123C309.55 259.603 145.98 197.683 46.01 342.643C75.53 314.323 114.22 298.873 160.68 290.313V392.883C160.68 427.263 224.01 427.263 224.01 427.263H349.4C391.82 427.263 407.34 402.753 407.34 381.653H238.53V281.753Z" fill="white"/>
<path d="M404 504C459.228 504 504 459.228 504 404C504 348.772 459.228 304 404 304C348.772 304 304 348.772 304 404C304 459.228 348.772 504 404 504Z" fill="#FF1744" stroke="white" stroke-width="16" stroke-miterlimit="3.2"/>
</g>
<defs>
<clipPath id="clip0_2_31">
<rect width="512" height="512" fill="white"/>
</clipPath>
</defs>
</svg>
