<?xml version="1.0" encoding="UTF-8"?>
<svg xmlns="http://www.w3.org/2000/svg" version="1.1" xmlns:cc="http://creativecommons.org/ns#" xmlns:dc="http://purl.org/dc/elements/1.1/" xmlns:inkscape="http://www.inkscape.org/namespaces/inkscape" xmlns:rdf="http://www.w3.org/1999/02/22-rdf-syntax-ns#" xmlns:sodipodi="http://sodipodi.sourceforge.net/DTD/sodipodi-0.dtd" xmlns:svg="http://www.w3.org/2000/svg" viewBox="0 0 560.8 560.8">
  <!-- Generator: Adobe Illustrator 29.5.0, SVG Export Plug-In . SVG Version: 2.1.0 Build 137)  -->
  <defs>
    <style>
      .st0 {
        fill: #0061ae;
      }

      .st1 {
        fill-rule: evenodd;
      }

      .st1, .st2 {
        fill: #fff;
      }

      .st3 {
        fill: #ff1744;
      }

      .st3, .st2 {
        stroke: #000;
        stroke-miterlimit: 3.2;
        stroke-width: 16px;
      }
    </style>
  </defs>
  <g id="svg2" inkscape:export-xdpi="4.1084166" inkscape:export-ydpi="4.1084166" inkscape:version="0.91 r13725" sodipodi:docname="tray_mention.svg">
    <sodipodi:namedview id="base" bordercolor="#666666" borderopacity="1.0" fit-margin-bottom="0" fit-margin-left="0" fit-margin-right="0" fit-margin-top="0" inkscape:current-layer="layer1" inkscape:cx="-148.07144" inkscape:cy="294.7857" inkscape:document-units="px" inkscape:pageopacity="0.0" inkscape:pageshadow="2" inkscape:window-height="1057" inkscape:window-maximized="1" inkscape:window-width="1856" inkscape:window-x="56" inkscape:window-y="-8" inkscape:zoom="0.35" pagecolor="#ffffff" showgrid="false"/>
    <g id="layer1" inkscape:groupmode="layer" inkscape:label="レイヤー 1">
      <circle id="path4147" class="st2" cx="280" cy="280.8" r="272" inkscape:export-xdpi="90" inkscape:export-ydpi="90"/>
      <rect class="st0" x="14.42" y="16.2" width="532.23" height="528.13" rx="264.07" ry="264.07"/>
    </g>
    <g>
      <path class="st1" d="M244.75,234.9v-76.15h94.24c39.68,0,71.89-10.46,74.57-49.3-41.31,13.63-48.27,0-124.99,0-96.01,0-121.68,26.5-121.68,58.95v69.29c-41.12,24.72-83.21,65.39-114.67,129.04,50.5-94.21,130.47-120.7,192.52-131.83h0Z"/>
      <path class="st1" d="M244.75,305.84c2.79-.15,5.53-.32,8.36-.46,82.84-3.96,123.04-64.47,126.14-93.17-63.48,71.48-227.05,9.56-327.02,154.52,29.52-28.32,68.21-43.77,114.67-52.33v102.57c0,34.38,63.33,34.38,63.33,34.38h125.39c42.42,0,57.94-24.51,57.94-45.61h-168.81v-99.9h0Z"/>
    </g>
    <circle id="path4149" class="st3" cx="420" cy="420.8" r="132"/>
  </g>
</svg>